{"title":"DISNEYS-HERCULES-H.264-AAC-MP4 BY STIG","uid":5029302,"size":835598818,"categoryP":"video","categoryS":"movies","magnet":"?xt=urn:btih:82c632c1a0e73e6c1232d77fda48bd11febb35a2&amp;dn=DISNEYS-HERCULES-H.264-AAC-MP4+BY+STIG&amp;tr=udp%3A%2F%2Ftracker.openbittorrent.com%3A80&amp;tr=udp%3A%2F%2Fopen.demonii.com%3A1337&amp;tr=udp%3A%2F%2Ftracker.coppersurfer.tk%3A6969&amp;tr=udp%3A%2F%2Fexodus.desync.com%3A6969","seeders":4,"leechers":1,"uploader":"alanwatson","files":3,"time":1248842753,"description":"Disney's 35th animated classic 'Hercules' is the funniest, most imaginative musical adventure yet!\n\nBestowed with superhuman strength, a young mortal named Hercules sets out to prove himself a hero in the eyes of his father, the great god Zeus. Along with his friends Pegasus, a flying horse, and Phil, a personal trainer, Hercules is tricked by the hilarious, hotheaded villain Hades, who's plotting to take over Mount Olympus! Hercules must now choose between his legendary strength and his true love, the Grecian beauty Meg. Only by learning a valuable lesson... that it's not the size of your strength that counts but the strength of your heart... will Hercules save Mount Olympus and be proclaimed a hero!\n\nFrom the creators of Aladdin and The Little Mermaid, and featuring a high-spirited soundtrack and unparalleled Disney animation, Hercules is the all-mighty adventure with something for everyone!\n\nFormat : MPEG-4\nFormat profile : Base Media / Version 2\nCodec ID : mp42\nFile size : 797 MiB\nDuration : 1h 29mn\nOverall bit rate : 1 251 Kbps\nEncoded date : UTC 2009-07-28 03:12:11\nTagged date : UTC 2009-07-28 07:15:11\nWriting application : HandBrake 0.9.3 2008112300\n\nVideo\nID : 1\nFormat : AVC\nFormat/Info : Advanced Video Codec\nFormat profile : &lt;a class=&quot;__cf_email__&quot; href=&quot;/cdn-cgi/l/email-protection&quot; data-cfemail=&quot;d598b4bcbb9599e1fbe5&quot;&gt;[email&amp;#160;protected]&lt;/a&gt;&lt;script cf-hash='f9e31' type=&quot;text/javascript&quot;&gt;\n/* &lt;![CDATA[ */!function(){try{var t=&quot;currentScript&quot;in document?document.currentScript:function(){for(var t=document.getElementsByTagName(&quot;script&quot;),e=t.length;e--;)if(t[e].getAttribute(&quot;cf-hash&quot;))return t[e]}();if(t&amp;&amp;t.previousSibling){var e,r,n,i,c=t.previousSibling,a=c.getAttribute(&quot;data-cfemail&quot;);if(a){for(e=&quot;&quot;,r=parseInt(a.substr(0,2),16),n=2;a.length-n;n+=2)i=parseInt(a.substr(n,2),16)^r,e+=String.fromCharCode(i);e=document.createTextNode(e),c.parentNode.replaceChild(e,c)}}}catch(u){}}();/* ]]&gt; */&lt;/script&gt;\nFormat settings, CABAC : Yes\nFormat settings, ReFrames : 3 frames\nCodec ID : avc1\nCodec ID/Info : Advanced Video Coding\nDuration : 1h 29mn\nBit rate mode : Variable\nBit rate : 1 092 Kbps\nWidth : 712 pixels\nHeight : 456 pixels\nDisplay aspect ratio : 1.666\nOriginal display aspect ratio : 1.665\nFrame rate mode : Variable\nFrame rate : 25.000 fps\nMinimum frame rate : 12.500 fps\nMaximum frame rate : 25.000 fps\nResolution : 24 bits\nColorimetry : 4:2:0\nScan type : Progressive\nBits/(Pixel*Frame) : 0.135\nStream size : 693 MiB (87%)\nWriting library : x264 core 65\n\nAudio\nID : 2\nFormat : AAC\nFormat/Info : Advanced Audio Codec\nFormat version : Version 4\nFormat profile : LC\nFormat settings, SBR : No\nCodec ID : 40\nDuration : 1h 29mn\nBit rate mode : Variable\nBit rate : 160 Kbps\nMaximum bit rate : 205 Kbps\nChannel(s) : 2 channels\nChannel positions : L R\nSampling rate : 48.0 KHz\nResolution : 16 bits\nStream size : 102 MiB (13%)\nLanguage : English\nEncoded date : UTC 2009-07-28 03:12:12\nTagged date : UTC 2009-07-28 07:15:03","torrent":{"xt":"urn:btih:82c632c1a0e73e6c1232d77fda48bd11febb35a2","amp;dn":"DISNEYS-HERCULES-H.264-AAC-MP4+BY+STIG","amp;tr":["udp%3A%2F%2Ftracker.openbittorrent.com%3A80","udp%3A%2F%2Fopen.demonii.com%3A1337","udp%3A%2F%2Ftracker.coppersurfer.tk%3A6969","udp%3A%2F%2Fexodus.desync.com%3A6969"],"infoHash":"82c632c1a0e73e6c1232d77fda48bd11febb35a2","infoHashBuffer":{"type":"Buffer","data":[130,198,50,193,160,231,62,108,18,50,215,127,218,72,189,17,254,187,53,162]},"announce":[],"urlList":[]}}